<svg id="Layer_1" data-name="Layer 1" xmlns="http://www.w3.org/2000/svg" xmlns:xlink="http://www.w3.org/1999/xlink" viewBox="0 0 274.6 288.5"><defs><style>.cls-1{fill:url(#linear-gradient);}.cls-2{fill:url(#linear-gradient-2);}.cls-3{fill:url(#linear-gradient-3);}.cls-4{fill:url(#linear-gradient-4);}.cls-5{fill:url(#linear-gradient-5);}.cls-6{fill:url(#linear-gradient-6);}.cls-7{fill:url(#linear-gradient-7);}.cls-8{fill:url(#linear-gradient-8);}.cls-9{fill:url(#linear-gradient-9);}.cls-10{fill:url(#linear-gradient-10);}.cls-11{fill:url(#linear-gradient-11);}.cls-12{fill:url(#linear-gradient-12);}.cls-13{fill:url(#linear-gradient-13);}.cls-14{fill:url(#linear-gradient-14);}.cls-15{fill:url(#linear-gradient-15);}.cls-16{fill:url(#linear-gradient-16);}.cls-17{fill:url(#linear-gradient-17);}.cls-18{fill:url(#linear-gradient-18);}</style><linearGradient id="linear-gradient" x1="60.9" y1="5.37" x2="323.3" y2="5.37" gradientTransform="matrix(1, 0, 0, -1, -6.8, 225.8)" gradientUnits="userSpaceOnUse"><stop offset="0" stop-color="#2e368f"/><stop offset="1"/></linearGradient><linearGradient id="linear-gradient-2" x1="106.51" y1="18.08" x2="105.83" y2="57.81" gradientTransform="matrix(1, 0, 0, -1, -6.8, 225.8)" gradientUnits="userSpaceOnUse"><stop offset="0" stop-color="#e6e6e6"/><stop offset="0.59" stop-color="#5c5c5c"/><stop offset="1"/></linearGradient><linearGradient id="linear-gradient-3" x1="123.11" y1="148.61" x2="122.43" y2="188.37" gradientTransform="matrix(1, 0, 0, -1, -41.89, 355.88)" xlink:href="#linear-gradient-2"/><linearGradient id="linear-gradient-4" x1="144.22" y1="149.01" x2="143.54" y2="188.75" gradientTransform="matrix(1, 0, 0, -1, -41.89, 355.88)" xlink:href="#linear-gradient-2"/><linearGradient id="linear-gradient-5" x1="175.82" y1="18.39" x2="175.11" y2="59.62" xlink:href="#linear-gradient-2"/><linearGradient id="linear-gradient-6" x1="203.21" y1="19.77" x2="202.53" y2="59.49" xlink:href="#linear-gradient-2"/><linearGradient id="linear-gradient-7" x1="213.21" y1="150.21" x2="212.52" y2="189.95" gradientTransform="matrix(1, 0, 0, -1, -41.89, 355.88)" xlink:href="#linear-gradient-2"/><linearGradient id="linear-gradient-8" x1="236.5" y1="20.33" x2="235.81" y2="60.08" xlink:href="#linear-gradient-2"/><linearGradient id="linear-gradient-9" x1="261.68" y1="20.77" x2="260.99" y2="60.51" xlink:href="#linear-gradient-2"/><linearGradient id="linear-gradient-10" x1="158.85" y1="200.02" x2="158.85" y2="249.95" gradientTransform="matrix(1, 0, 0, -1, -41.89, 355.88)" xlink:href="#linear-gradient-2"/><linearGradient id="linear-gradient-11" x1="131" y1="69.28" x2="131" y2="119.67" xlink:href="#linear-gradient-2"/><linearGradient id="linear-gradient-12" x1="147.3" y1="69.3" x2="147.3" y2="119.44" xlink:href="#linear-gradient-2"/><linearGradient id="linear-gradient-13" x1="103.85" y1="199.43" x2="103.85" y2="249.94" gradientTransform="matrix(1, 0, 0, -1, -41.89, 355.88)" xlink:href="#linear-gradient-2"/><linearGradient id="linear-gradient-14" x1="221.8" y1="69.4" x2="221.8" y2="120.17" xlink:href="#linear-gradient-2"/><linearGradient id="linear-gradient-15" x1="239" y1="199.4" x2="239" y2="250.3" gradientTransform="matrix(1, 0, 0, -1, -41.89, 355.88)" xlink:href="#linear-gradient-2"/><linearGradient id="linear-gradient-16" x1="60.9" y1="158.24" x2="323.3" y2="158.24" xlink:href="#linear-gradient"/><linearGradient id="linear-gradient-17" x1="41.89" y1="207.75" x2="266.9" y2="207.75" gradientUnits="userSpaceOnUse"><stop offset="0" stop-color="#3953a4"/><stop offset="1"/></linearGradient><linearGradient id="linear-gradient-18" x1="41.89" y1="79.68" x2="266.8" y2="79.68" xlink:href="#linear-gradient-17"/></defs><title>pixel perfect SY</title><path class="cls-1" d="M54.1,204.1c19.7,38.6,60.9,65.1,108.5,65.1,44.4,0,83.2-23.1,104.2-57.5h0a113,113,0,0,0,16.7-59.2v-.3h33A136.3,136.3,0,0,1,54.1,204.1Z" transform="translate(-41.9 -0.1)"/><path class="cls-2" d="M94.5,170.5a4.9,4.9,0,0,1,1.6-.9,6.2,6.2,0,0,1,2-.3H107l3.6-4.9H98.2a13.8,13.8,0,0,0-4.3.6,10.2,10.2,0,0,0-3.4,1.8,8.6,8.6,0,0,0-2.2,2.9,8.2,8.2,0,0,0-.8,3.7,8.5,8.5,0,0,0,.8,3.7,9,9,0,0,0,2.2,3,10.6,10.6,0,0,0,3.4,2,12.6,12.6,0,0,0,4.3.7h8.7l3.7-4.9H98.1a6.4,6.4,0,0,1-2-.3,5,5,0,0,1-1.6-.9,3.9,3.9,0,0,1-1.1-1.3,4.1,4.1,0,0,1,1.1-4.9Z" transform="translate(-41.9 -0.1)"/><polygon class="cls-3" points="76.2 164.3 70.7 164.3 70.7 182.7 87.1 182.7 90.8 177.8 76.2 177.8 76.2 164.3"/><polygon class="cls-4" points="97 177.8 97 176 108.3 176 111.6 171.7 97 171.7 97 169.2 108.5 169.2 112 164.3 91.5 164.3 91.5 182.7 108.6 182.7 112.1 177.8 97 177.8"/><path class="cls-5" d="M171,164a4.2,4.2,0,0,0-4.4,0,6.5,6.5,0,0,0-1.5,1.5l-11.9,17.3H160l8.7-12.6,3.3,5,1,1.5.9,1.3h-8l-3.5,4.9H184l-11.6-17.2A5.8,5.8,0,0,0,171,164Z" transform="translate(-41.9 -0.1)"/><path class="cls-6" d="M201.4,175.2l-10.8-10.1a3.5,3.5,0,0,0-1.2-.8l-1-.2-1.1.2-.9.6a3,3,0,0,0-.7,1.1,4.4,4.4,0,0,0-.2,1.6v15.2h4.9V172l10.7,10.1a3.2,3.2,0,0,0,1.1.8l1,.2,1.1-.2a2.4,2.4,0,0,0,1-.6,3.2,3.2,0,0,0,.7-1.1,4.4,4.4,0,0,0,.2-1.6V164.4h-4.9Z" transform="translate(-41.9 -0.1)"/><rect class="cls-7" x="168" y="164.3" width="5.5" height="18.35"/><path class="cls-8" d="M234.4,175.2l-10.8-10.1a3.5,3.5,0,0,0-1.2-.8l-1-.2-1.1.2-.9.6a3,3,0,0,0-.7,1.1,4.4,4.4,0,0,0-.2,1.6v15.2H224V172l10.7,10.1a3.2,3.2,0,0,0,1.1.8l1,.2,1.1-.2a2.4,2.4,0,0,0,1-.6,3.2,3.2,0,0,0,.7-1.1,4.4,4.4,0,0,0,.2-1.6V164.4h-5.5Z" transform="translate(-41.9 -0.1)"/><path class="cls-9" d="M250.8,175.4H260v2.4h-6.5a6.5,6.5,0,0,1-2-.3,5,5,0,0,1-1.6-.9,3.8,3.8,0,0,1-1.1-1.3,4,4,0,0,1-.4-1.7,3.9,3.9,0,0,1,.4-1.7,4.3,4.3,0,0,1,1.1-1.4,4.9,4.9,0,0,1,1.6-.9,6.2,6.2,0,0,1,2-.3h8.7l3.7-4.9H253.3a13.8,13.8,0,0,0-4.3.6,10.2,10.2,0,0,0-3.4,1.8,8.6,8.6,0,0,0-2.2,2.9,8.2,8.2,0,0,0-.8,3.7,8.5,8.5,0,0,0,.8,3.7,9,9,0,0,0,2.2,3,10.6,10.6,0,0,0,3.4,2,12.6,12.6,0,0,0,4.3.7h12.3V171.1H254.1Z" transform="translate(-41.9 -0.1)"/><polygon class="cls-10" points="117.1 108.1 128.8 92.8 118.3 92.8 105.1 108.1 117.1 108.1"/><path class="cls-11" d="M98.8,123.6a20,20,0,0,0,6.9,3.5,35,35,0,0,0,9.9,1.2h8.6l10.1-11.6H117.6a9.8,9.8,0,0,1-4.9-1,3.6,3.6,0,0,1-1.6-3.4,3.5,3.5,0,0,1,1.6-3.3,10.2,10.2,0,0,1,4.9-.9h24.1L155,92.8H118.9a44,44,0,0,0-11.6,1.3,22.3,22.3,0,0,0-7.9,3.7,14.6,14.6,0,0,0-4.5,5.8,19.1,19.1,0,0,0-1.5,7.6,17.7,17.7,0,0,0,1.3,7A13.6,13.6,0,0,0,98.8,123.6Z" transform="translate(-41.9 -0.1)"/><path class="cls-12" d="M166.7,120.7q-5.6-4-16.5-4H139.5l-10.1,11.6h18.9a9,9,0,0,1,4.8,1,3.6,3.6,0,0,1,1.5,3.3,3.7,3.7,0,0,1-1.5,3.3,8.7,8.7,0,0,1-4.8,1H121.8l-13.2,15.3h38.5a43.8,43.8,0,0,0,11.5-1.3,21.7,21.7,0,0,0,7.9-3.8A14.4,14.4,0,0,0,171,141a22.2,22.2,0,0,0,1.4-8.1Q172.4,124.7,166.7,120.7Z" transform="translate(-41.9 -0.1)"/><polygon class="cls-13" points="74.6 136.8 61.1 136.8 49.3 152.1 61.4 152.1 74.6 136.8"/><path class="cls-14" d="M212.4,140.4l41.7-48.2H243.2l-13.6,16.6-4.9,6.1-2.6,3.4-1.5-1.9-2.3-2.7-2.4-2.7-1.9-2.1L199.7,92.3H175.9l36.5,40Z" transform="translate(-41.9 -0.1)"/><polygon class="cls-15" points="170.4 146.5 170.4 152.1 188.8 152.1 188.8 132.3 223.8 92.2 216.8 92.2 170.4 146.5"/><path class="cls-16" d="M162.6,19.6c44.4,0,83.2,23.1,104.2,57.5h0A113,113,0,0,1,283.5,135h33A136.3,136.3,0,0,0,54.1,84.7C73.9,46.1,115,19.6,162.6,19.6Z" transform="translate(-41.9 -0.1)"/><path class="cls-17" d="M178.5,250.7c-57.4,0-104.3-43.6-107.3-98.5H41.9a112.7,112.7,0,0,0,12.3,46c19.7,38.6,60.9,65.1,108.5,65.1,44.4,0,83.2-23.1,104.2-57.5A108.4,108.4,0,0,1,178.5,250.7Z" transform="translate(-41.9 -0.1)"/><path class="cls-18" d="M71.2,134.5c3.8-54.1,50.4-97,107.2-97a108.4,108.4,0,0,1,88.4,44.9C245.8,48,207,24.9,162.6,24.9,115,24.9,73.8,51.4,54.1,90a112.7,112.7,0,0,0-12.2,44.5Z" transform="translate(-41.9 -0.1)"/></svg>