<svg id="Layer_1" data-name="Layer 1" xmlns="http://www.w3.org/2000/svg" xmlns:xlink="http://www.w3.org/1999/xlink" viewBox="0 0 223.9 121"><defs><style>.cls-1{fill:url(#linear-gradient);}.cls-2{fill:url(#linear-gradient-2);}.cls-3{fill:url(#linear-gradient-3);}.cls-4{fill:url(#linear-gradient-4);}.cls-5{fill:url(#linear-gradient-5);}.cls-6{fill:url(#linear-gradient-6);}.cls-7{fill:url(#linear-gradient-7);}.cls-8{fill:url(#linear-gradient-8);}.cls-9{fill:url(#linear-gradient-9);}.cls-10{fill:url(#linear-gradient-10);}.cls-11{fill:url(#linear-gradient-11);}.cls-12{fill:url(#linear-gradient-12);}.cls-13{fill:url(#linear-gradient-13);}.cls-14{fill:url(#linear-gradient-14);}.cls-15{fill:url(#linear-gradient-15);}.cls-16{font-size:30.41px;font-family:EthnocentricRg-Regular, Ethnocentric;}.cls-17{fill:url(#linear-gradient-16);}.cls-18{fill:url(#linear-gradient-17);}.cls-19{fill:url(#radial-gradient);}.cls-20{fill:url(#radial-gradient-2);}.cls-21{fill:url(#radial-gradient-3);}.cls-22{fill:url(#radial-gradient-4);}.cls-23{fill:url(#radial-gradient-5);}</style><linearGradient id="linear-gradient" x1="48.62" y1="144.21" x2="128.93" y2="144.21" gradientUnits="userSpaceOnUse"><stop offset="0" stop-color="navy"/><stop offset="1" stop-color="#23bdf9"/></linearGradient><linearGradient id="linear-gradient-2" x1="175.14" y1="188.72" x2="174.82" y2="207.19" gradientTransform="matrix(1, 0, 0, -1, 0, 333)" gradientUnits="userSpaceOnUse"><stop offset="0" stop-color="#e6e6e6"/><stop offset="0.59" stop-color="#5c5c5c"/><stop offset="1"/></linearGradient><linearGradient id="linear-gradient-3" x1="188.34" y1="211.9" x2="188.01" y2="230.39" gradientTransform="matrix(1, 0, 0, -1, -48.62, 306.3)" xlink:href="#linear-gradient-2"/><linearGradient id="linear-gradient-4" x1="200.86" y1="212.07" x2="200.55" y2="230.57" gradientTransform="matrix(1, 0, 0, -1, -48.62, 306.3)" xlink:href="#linear-gradient-2"/><linearGradient id="linear-gradient-5" x1="214.97" y1="189.26" x2="214.65" y2="207.75" xlink:href="#linear-gradient-2"/><linearGradient id="linear-gradient-6" x1="230.65" y1="189.5" x2="230.33" y2="207.99" xlink:href="#linear-gradient-2"/><linearGradient id="linear-gradient-7" x1="240.16" y1="212.66" x2="239.85" y2="231.12" gradientTransform="matrix(1, 0, 0, -1, -48.62, 306.3)" xlink:href="#linear-gradient-2"/><linearGradient id="linear-gradient-8" x1="249.8" y1="189.77" x2="249.48" y2="208.26" xlink:href="#linear-gradient-2"/><linearGradient id="linear-gradient-9" x1="264.07" y1="189.97" x2="263.75" y2="208.45" xlink:href="#linear-gradient-2"/><linearGradient id="linear-gradient-10" x1="195.05" y1="238" x2="195.05" y2="255.71" gradientTransform="matrix(1, 0, 0, -1, -48.62, 306.3)" xlink:href="#linear-gradient-2"/><linearGradient id="linear-gradient-11" x1="180.3" y1="215" x2="180.3" y2="232.71" xlink:href="#linear-gradient-2"/><linearGradient id="linear-gradient-12" x1="187.19" y1="215" x2="187.19" y2="232.71" xlink:href="#linear-gradient-2"/><linearGradient id="linear-gradient-13" x1="171.63" y1="238" x2="171.63" y2="255.71" gradientTransform="matrix(1, 0, 0, -1, -48.62, 306.3)" xlink:href="#linear-gradient-2"/><linearGradient id="linear-gradient-14" x1="250.57" y1="215" x2="250.57" y2="232.71" xlink:href="#linear-gradient-2"/><linearGradient id="linear-gradient-15" x1="260.95" y1="238" x2="260.95" y2="255.71" gradientTransform="matrix(1, 0, 0, -1, -48.62, 306.3)" xlink:href="#linear-gradient-2"/><linearGradient id="linear-gradient-16" x1="216.64" y1="95.14" x2="216.64" y2="114.81" gradientUnits="userSpaceOnUse"><stop offset="0"/><stop offset="0.41" stop-color="#5c5c5c"/><stop offset="1" stop-color="#e6e6e6"/></linearGradient><linearGradient id="linear-gradient-17" x1="128.76" y1="59.75" x2="108.85" y2="181" gradientUnits="userSpaceOnUse"><stop offset="0" stop-color="#23bdf9"/><stop offset="1" stop-color="navy"/></linearGradient><radialGradient id="radial-gradient" cx="116.47" cy="104.26" r="13.89" gradientTransform="translate(-49.2 -49.7) scale(1.02 1)" xlink:href="#linear-gradient-17"/><radialGradient id="radial-gradient-2" cx="97.56" cy="89.75" r="17.73" gradientTransform="translate(-49.2 -49.7) scale(1.02 1)" xlink:href="#linear-gradient-17"/><radialGradient id="radial-gradient-3" cx="91.92" cy="68.54" r="12.13" gradientTransform="translate(-49.2 -49.7) scale(1.02 1)" xlink:href="#linear-gradient-17"/><radialGradient id="radial-gradient-4" cx="81.21" cy="81.46" r="10.02" gradientTransform="translate(-49.2 -49.7) scale(1.02 1)" xlink:href="#linear-gradient-17"/><radialGradient id="radial-gradient-5" cx="96.9" cy="53.74" r="8.06" gradientTransform="translate(-49.2 -49.7) scale(1.02 1)" xlink:href="#linear-gradient-17"/></defs><title>STY Cleaning</title><path class="cls-1" d="M128.9,135.1S100.6,177,71.4,164.3c-19-8.2-23.8-32.8-22.6-41.6a1.2,1.2,0,0,1,2.2-.3c3.5,7,15.1,26,39.2,25.9C124.3,148,128.9,135.1,128.9,135.1Z" transform="translate(-48.6 -49.7)"/><path class="cls-2" d="M172.2,127l.9-.4h6.3l2-2.2h-7.1a9.4,9.4,0,0,0-2.4.3,6.3,6.3,0,0,0-2,.8,4.2,4.2,0,0,0-1.3,1.3,3.3,3.3,0,0,0-.5,1.7,3.4,3.4,0,0,0,.5,1.7,4.4,4.4,0,0,0,1.3,1.4,6.4,6.4,0,0,0,2,.9,8.6,8.6,0,0,0,2.4.3h5.1l2-2.2h-8.3l-.9-.4a1.9,1.9,0,0,1-.6-.7,1.7,1.7,0,0,1,0-1.7Z" transform="translate(-48.6 -49.7)"/><polygon class="cls-3" points="137.2 74.4 134 74.4 134 83 143 83 145 80.7 137.2 80.7 137.2 74.4"/><polygon class="cls-4" points="149.3 80.7 149.3 79.6 155.5 79.6 157.3 77.7 149.3 77.7 149.3 76.6 155.8 76.6 157.9 74.4 146.1 74.4 146.1 83 155.9 83 157.9 80.7 149.3 80.7"/><path class="cls-5" d="M216,124.3a2.7,2.7,0,0,0-2.4,0l-.8.7-6.5,7.7h3.7l4.8-5.7,1.8,2.3.5.7.5.6h-4.4l-1.9,2.2h11.8l-6.3-7.7Z" transform="translate(-48.6 -49.7)"/><path class="cls-6" d="M233.5,129.1l-6.2-4.7-.7-.4h-1.2l-.5.3-.4.5a1.7,1.7,0,0,0-.1.7v7.1h2.9v-5l6.2,4.7.6.4h1.2l.6-.3.4-.5a1.7,1.7,0,0,0,.1-.7v-7.1h-2.9Z" transform="translate(-48.6 -49.7)"/><rect class="cls-7" x="189.7" y="74.4" width="3.1" height="8.51"/><path class="cls-8" d="M252.7,129.1l-6.2-4.7-.7-.4h-1.2l-.5.3-.4.5a1.7,1.7,0,0,0-.1.7v7.1h2.9v-5l6.2,4.7.6.4h1.2l.6-.3.4-.5a1.7,1.7,0,0,0,.1-.7v-7.1h-2.9Z" transform="translate(-48.6 -49.7)"/><path class="cls-9" d="M261.8,129.2h5.2v1.2H262l-.9-.4a1.9,1.9,0,0,1-.6-.7,1.6,1.6,0,0,1-.2-.8,1.6,1.6,0,0,1,.2-.8l.6-.7.9-.4h6.4l2-2.2h-7.2a9.4,9.4,0,0,0-2.4.3,6.3,6.3,0,0,0-2,.8,4.2,4.2,0,0,0-1.3,1.3,3.3,3.3,0,0,0-.5,1.7,3.4,3.4,0,0,0,.5,1.7,4.4,4.4,0,0,0,1.3,1.4,6.4,6.4,0,0,0,2,.9,8.6,8.6,0,0,0,2.4.3h7v-5.2h-6.4Z" transform="translate(-48.6 -49.7)"/><polygon class="cls-10" points="146.5 51.3 151.6 45.9 147.1 45.9 141.3 51.3 146.5 51.3"/><path class="cls-11" d="M169.5,106.4a9.4,9.4,0,0,0,2.9,1.2,18.2,18.2,0,0,0,4.3.4h3.5l4.4-4.1h-7.2a4.8,4.8,0,0,1-2.1-.3,1.2,1.2,0,0,1-.7-1.2,1.1,1.1,0,0,1,.7-1.1,5.1,5.1,0,0,1,2.1-.3h10.3l5.7-5.4H178.1a22.9,22.9,0,0,0-5,.5,10.6,10.6,0,0,0-3.4,1.3,5.4,5.4,0,0,0-1.9,2,5.7,5.7,0,0,0-.6,2.7,5.3,5.3,0,0,0,.6,2.4A5,5,0,0,0,169.5,106.4Z" transform="translate(-48.6 -49.7)"/><path class="cls-12" d="M198.4,105.4q-2.4-1.4-7.1-1.4h-4.4l-4.4,4.1h8.1a4.6,4.6,0,0,1,2.1.3,1.2,1.2,0,0,1,.6,1.2,1.2,1.2,0,0,1-.6,1.2,4.5,4.5,0,0,1-2.1.3H179.3l-5.7,5.4h16.3a22.9,22.9,0,0,0,5-.5,10.4,10.4,0,0,0,3.4-1.3,5.3,5.3,0,0,0,1.9-2.1,6.6,6.6,0,0,0,.6-2.9A4.5,4.5,0,0,0,198.4,105.4Z" transform="translate(-48.6 -49.7)"/><polygon class="cls-13" points="128.4 61.4 122.7 61.4 117.6 66.8 122.8 66.8 128.4 61.4"/><path class="cls-14" d="M249.4,112.4l17.8-16.8h-4.7l-5.8,5.8-2.1,2.1-1.1,1.2-.6-.7-1-.9-1-.9-.8-.7L244,95.6H233.9l15.5,13.9Z" transform="translate(-48.6 -49.7)"/><polygon class="cls-15" points="200.8 64.8 200.8 66.8 208.7 66.8 208.7 59.9 223.9 45.9 220.8 45.9 200.8 64.8"/><text class="cls-16" transform="translate(151.4 66.3) scale(1.22 1)">T</text><path class="cls-17" d="M233.2,95.7l-5,5.3h-8.9V116h-7.7V101H200l5-5.3Z" transform="translate(-48.6 -49.7)"/><path class="cls-18" d="M123.8,53.4s-9.7-3.8-11.9,0,2.8,5.1,11.9,11,14.6,10.5,20.7,24.1c0,0-2.1-8.3-18.4-16.4-14.2-7-18.9-1-7.8,4.9,20,10.6,21.8,13.7,23.7,21.8,0,0-8.5-10.4-20.6-13.8-8.6-2.4-13.1,2.4-2.5,6,12.4,4.2,21.2,14,15.3,34.2s-37.2,34-62.7,39.1c8,3.6,16.4,6.4,25.8,6.4,34.7,0,62.8-27.5,62.8-61.5C160,84.5,145.2,63.2,123.8,53.4Z" transform="translate(-48.6 -49.7)"/><ellipse class="cls-19" cx="69.7" cy="54.6" rx="7.1" ry="7"/><ellipse class="cls-20" cx="50.4" cy="40" rx="9.1" ry="8.9"/><ellipse class="cls-21" cx="44.6" cy="18.8" rx="6.2" ry="6.1"/><ellipse class="cls-22" cx="33.7" cy="31.8" rx="5.1" ry="5"/><ellipse class="cls-23" cx="49.7" cy="4" rx="4.1" ry="4"/></svg>